<svg width="1008" height="332" viewBox="0 0 1008 332" fill="none" xmlns="http://www.w3.org/2000/svg">
<path d="M440.647 233.518H417.632V187.36C417.632 186.868 416.206 182.065 415.845 181.252C410.942 170.133 392.697 171.343 387.699 182.046C387.091 183.332 385.095 189.516 385.095 190.518V233.518H362.08V185.79C362.08 184.996 360.18 180.609 359.572 179.607C353.547 169.906 338.077 172.251 332.699 181.819C332.281 182.557 330.342 187.076 330.342 187.379V233.537H307.327V154.646H328.347C330.608 156.726 329.164 160.508 329.544 163.326C342.752 149.673 368.998 150.335 379.926 166.465C394.769 148.293 429.225 148.727 438.062 172.591C438.917 174.879 440.628 180.515 440.628 182.651V233.537L440.647 233.518Z" fill="black"/>
<path d="M475.573 125.431V162.512C494.235 146.269 525.613 153.379 535.229 176.184C539.277 185.79 539.41 199.859 536.103 209.673C527.912 234.047 493.304 243.294 474.793 224.839V233.518H452.558V125.431H475.573ZM490.434 172.951C469.852 176.43 470.042 213.171 491.841 215.346C524.377 218.617 522.762 167.486 490.434 172.951Z" fill="black"/>
<path d="M47.6973 141.443C65.9801 139.59 86.3534 143.825 97.8894 158.972L83.0275 172.663C77.8392 168.673 72.8219 163.68 66.1701 162.073C40.4565 155.814 19.323 176.274 25.2145 201.991C30.0038 222.886 53.5889 232.436 72.4988 222.905C76.5658 220.844 79.5686 217.441 83.0465 214.661L97.5093 227.198C98.6876 229.335 95.7988 231.339 94.3164 232.757C71.0354 254.711 26.5639 249.889 8.81325 223.057C-13.0804 189.965 8.03405 145.489 47.7164 141.462L47.6973 141.443Z" fill="black"/>
<path d="M742.983 233.511H719.968V186.578C719.968 185.651 717.421 179.827 716.68 178.806C712.062 172.547 700.393 172.168 694.007 175.761C689.674 178.201 685.056 185.67 685.056 190.53V233.53H662.041V154.639H684.258V163.319C700.659 148.985 731.314 149.798 740.189 172.017C741.007 174.059 742.983 180.035 742.983 181.869V233.549V233.511Z" fill="black"/>
<path d="M128.609 154.058C158.846 150.995 183.819 172.514 176.939 203.677C169.242 238.546 116.902 245.202 97.9544 216.403C80.7359 190.213 97.6883 157.178 128.59 154.058H128.609ZM134.064 172.287C107.97 172.968 107.932 215.269 134.064 215.855C162.039 216.479 161.716 171.568 134.064 172.287Z" fill="black"/>
<path d="M251.622 154.075C273.972 152.051 297.937 164.04 300.18 188.169C305.805 248.736 213.916 248.906 213.992 193.804C214.011 172.341 230.393 155.984 251.622 154.075ZM257.057 172.285C230.508 172.663 230.469 216.495 257.59 215.852C284.71 215.209 283.797 171.906 257.057 172.285Z" fill="black"/>
<path d="M787.255 154.077C817.492 151.164 839.347 170.755 835.736 201.483C833.627 219.39 815.42 232.854 798.126 234.291C738.507 239.245 733.148 159.296 787.255 154.077ZM792.69 172.287C766.083 172.665 766.235 216.497 793.222 215.854C808.54 215.495 814.052 203.298 812.835 189.702C811.904 179.453 802.858 172.135 792.69 172.287Z" fill="black"/>
<path d="M650.141 233.519H628.723V224.064L624.332 228.773C610.174 239.608 578.322 235.24 575.623 214.931C572.639 192.542 591.169 187.947 609.243 186.964C614.412 186.68 621.14 187.72 625.967 187.001C627.221 186.812 627.164 187.474 627.164 185.81C627.069 166.295 596.205 170.682 585.885 179.116L578.797 163.062C596.851 150.26 637.484 148.218 647.366 172.025C648.032 173.632 650.16 179.816 650.16 181.083V233.538L650.141 233.519ZM627.126 200.389H607.684C604.282 200.389 598.752 203.717 597.935 207.254C594.666 221.398 617.757 222.986 625.549 211.83C628.133 208.123 626.917 204.625 627.126 200.389Z" fill="black"/>
<path d="M293.039 5.5188V23.672H241.459V49.6917H286.691V67.8449H241.459V103.338H218.444V5.5188H293.039Z" fill="black"/>
<path d="M317.663 28.4011V70.6074C317.663 72.158 319.944 78.3982 320.97 79.9488C328.002 90.7083 347.14 85.8297 349.858 73.4249L350.2 28.4011H372.018L373.215 29.5924V103.359H351.796V95.4736C332.924 112.492 298.773 105.552 296.264 77.7174C294.876 62.4006 296.644 28.42 296.644 28.42H317.663V28.4011Z" fill="black"/>
<path d="M207.351 125.43H184.336V233.517H207.351V125.43Z" fill="black"/>
<path d="M406.532 0H384.315V103.341H406.532V0Z" fill="black"/>
<path d="M439.842 0H418.424V103.341H439.842V0Z" fill="black"/>
<path d="M567.596 154.625L567.197 233.516H545.379V154.625H567.596Z" fill="black"/>
<path d="M556.327 118.545C575.788 117.959 575.275 143.752 556.764 144.055C538.007 144.357 537.284 119.113 556.327 118.545Z" fill="black"/>
<path d="M517.651 252.185L539.127 266.897C658.212 344.275 819.07 306.626 890.813 185.245C893.569 180.593 904.345 156.786 905.732 155.897C915.406 149.695 931.123 158.715 932.966 169.815C934.62 179.742 919.226 205.403 913.372 214.744C826.976 352.557 628.146 372.242 517.651 252.204V252.185Z" fill="black"/>
<path d="M968.75 27.4236C971.772 31.7539 953.47 40.2254 950.715 46.7871C946.286 57.3386 953.907 58.8892 955.713 65.1105C956.967 69.4219 954.059 75.6053 961.072 76.8155C965.88 77.6665 970.005 74.622 974.566 75.9835C979.127 77.345 982.434 84.3037 985.532 85.1168C989.922 86.2703 1004.8 79.0091 1004.57 90.2792C1004.48 94.7797 1000.2 97.4081 1001.67 105.766C1002.31 109.416 1005.49 111.798 1005.66 113.141C1005.92 115.051 1002.77 116.639 1003.11 118.379C1003.38 119.721 1006.04 120.818 1006.53 122.123C1007.44 124.525 1009.65 134.49 1005.85 132.712C1000.72 125.319 991.518 134.944 983.08 131.994C982.985 134.32 985.722 133.185 987.071 135.776C987.679 136.929 989.104 144.361 988.762 144.701C985.037 144.947 981.541 141.335 978.804 145.439C978.367 147.481 984.201 151.943 985.171 154.685C986.615 158.694 980.685 188.552 978.082 188.515L967.401 182.861L972.722 172.252C967.458 165.029 957.727 174.597 948.928 170.815C948.529 170.645 942.466 165.842 942.2 165.521C940.585 163.497 941.079 160.415 940.034 159.148C939.084 157.995 936.195 158.297 934.978 157.106C933.762 155.914 934.294 153.267 932.261 151.66C931.691 151.206 919.774 145.495 919.052 145.306C917 144.777 915.004 146.044 913.009 145.684C904.381 144.153 894.65 137.78 889.044 131.181C887.941 126.472 903.107 116.28 904.476 109.699C905.274 105.899 902.936 97.7296 902.613 93.8531C902.48 92.1323 904.324 91.1679 903.905 88.426C903.259 84.1714 899.002 80.1247 899.078 77.4774C899.173 74.2816 906.509 71.067 901.929 64.0894L909.037 65.4887C907.117 60.3642 918.71 56.2797 920.098 53.8593C921.77 50.9472 920.098 45.9928 925.343 41.3789C928.593 38.5046 930.379 39.3178 933.192 37.805C934.294 37.2188 934.351 34.6282 935.663 34.3067C938.798 33.5314 942.314 36.2733 946.077 35.2333C952.805 33.418 957.727 19.2546 968.731 27.4047L968.75 27.4236Z" fill="black"/>
</svg>
